<?xml version="1.0" encoding="UTF-8" standalone="no"?>
<svg
   xmlns:dc="http://purl.org/dc/elements/1.1/"
   xmlns:cc="http://creativecommons.org/ns#"
   xmlns:rdf="http://www.w3.org/1999/02/22-rdf-syntax-ns#"
   xmlns:svg="http://www.w3.org/2000/svg"
   xmlns="http://www.w3.org/2000/svg"
   xmlns:xlink="http://www.w3.org/1999/xlink"
   xmlns:sodipodi="http://sodipodi.sourceforge.net/DTD/sodipodi-0.dtd"
   xmlns:inkscape="http://www.inkscape.org/namespaces/inkscape"
   width="210mm"
   height="297mm"
   viewBox="0 0 210 297"
   version="1.1"
   id="svg8"
   inkscape:version="1.0.2 (e86c870879, 2021-01-15)"
   sodipodi:docname="logo.inkscape.svg">
  <defs
     id="defs2">
    <rect
       x="-278.67068"
       y="11.593884"
       width="152.23528"
       height="114.36741"
       id="rect935" />
    <rect
       x="-187.01704"
       y="191.67625"
       width="295.43629"
       height="35.570432"
       id="rect874" />
  </defs>
  <sodipodi:namedview
     id="base"
     pagecolor="#ffffff"
     bordercolor="#666666"
     borderopacity="1.0"
     inkscape:pageopacity="0.0"
     inkscape:pageshadow="2"
     inkscape:zoom="0.48607177"
     inkscape:cx="-762.67284"
     inkscape:cy="333.43481"
     inkscape:document-units="mm"
     inkscape:current-layer="layer1"
     inkscape:document-rotation="0"
     showgrid="false"
     inkscape:window-width="1920"
     inkscape:window-height="1176"
     inkscape:window-x="0"
     inkscape:window-y="0"
     inkscape:window-maximized="1" />
  <metadata
     id="metadata5">
    <rdf:RDF>
      <cc:Work
         rdf:about="">
        <dc:format>image/svg+xml</dc:format>
        <dc:type
           rdf:resource="http://purl.org/dc/dcmitype/StillImage" />
        <dc:title></dc:title>
      </cc:Work>
    </rdf:RDF>
  </metadata>
  <g
     inkscape:label="Layer 1"
     inkscape:groupmode="layer"
     id="layer1">
    <g
       id="path847"
       style="opacity:0.9">
      <path
         style="color:#000000;font-style:normal;font-variant:normal;font-weight:normal;font-stretch:normal;font-size:medium;line-height:normal;font-family:sans-serif;font-variant-ligatures:normal;font-variant-position:normal;font-variant-caps:normal;font-variant-numeric:normal;font-variant-alternates:normal;font-variant-east-asian:normal;font-feature-settings:normal;font-variation-settings:normal;text-indent:0;text-align:start;text-decoration:none;text-decoration-line:none;text-decoration-style:solid;text-decoration-color:#000000;letter-spacing:normal;word-spacing:normal;text-transform:none;writing-mode:lr-tb;direction:ltr;text-orientation:mixed;dominant-baseline:auto;baseline-shift:baseline;text-anchor:start;white-space:normal;shape-padding:0;shape-margin:0;inline-size:0;clip-rule:nonzero;display:inline;overflow:visible;visibility:visible;isolation:auto;mix-blend-mode:normal;color-interpolation:sRGB;color-interpolation-filters:linearRGB;solid-color:#000000;solid-opacity:1;vector-effect:none;fill:#ffffff;fill-opacity:0;fill-rule:nonzero;stroke:none;stroke-width:2.21952;stroke-linecap:butt;stroke-linejoin:round;stroke-miterlimit:4;stroke-dasharray:none;stroke-dashoffset:7.35;stroke-opacity:1.0;color-rendering:auto;image-rendering:auto;shape-rendering:auto;text-rendering:auto;enable-background:accumulate;stop-color:#000000;stop-opacity:1;"
         d="m 5.487381,104.00864 c 0,43.34636 -35.139174,78.48554 -78.485542,78.48554 -43.346369,0 -78.485539,-35.13918 -78.485539,-78.48554 0,-43.346372 35.13917,-78.485546 78.485539,-78.485546 43.346368,0 78.485542,35.139174 78.485542,78.485546 z"
         id="path868" />
      <path
         style="color:#000000;font-style:normal;font-variant:normal;font-weight:normal;font-stretch:normal;font-size:medium;line-height:normal;font-family:sans-serif;font-variant-ligatures:normal;font-variant-position:normal;font-variant-caps:normal;font-variant-numeric:normal;font-variant-alternates:normal;font-variant-east-asian:normal;font-feature-settings:normal;font-variation-settings:normal;text-indent:0;text-align:start;text-decoration:none;text-decoration-line:none;text-decoration-style:solid;text-decoration-color:#000000;letter-spacing:normal;word-spacing:normal;text-transform:none;writing-mode:lr-tb;direction:ltr;text-orientation:mixed;dominant-baseline:auto;baseline-shift:baseline;text-anchor:start;white-space:normal;shape-padding:0;shape-margin:0;inline-size:0;clip-rule:nonzero;display:inline;overflow:visible;visibility:visible;isolation:auto;mix-blend-mode:normal;color-interpolation:sRGB;color-interpolation-filters:linearRGB;solid-color:#000000;solid-opacity:1;vector-effect:none;fill:#2d774c;fill-opacity:1;fill-rule:nonzero;stroke:none;stroke-linecap:butt;stroke-linejoin:round;stroke-miterlimit:4;stroke-dasharray:none;stroke-dashoffset:7.35;stroke-opacity:1;color-rendering:auto;image-rendering:auto;shape-rendering:auto;text-rendering:auto;enable-background:accumulate;stop-color:#000000;stop-opacity:1"
         d="m -72.998047,24.414062 c -29.128233,0 -54.611583,15.660939 -68.485023,39.018945 -7.05759,11.882503 -11.11068,25.756915 -11.11068,40.574803 0,43.94613 35.64958,79.59571 79.595703,79.59571 43.946127,0 79.5957032,-35.64958 79.5957032,-79.59571 0,-43.946124 -35.6495762,-79.593748 -79.5957032,-79.593748 z m 0,2.21875 c 42.746609,0 77.3750001,34.628391 77.3750001,77.374998 0,42.74661 -34.6283911,77.37696 -77.3750001,77.37696 -42.746613,0 -77.375003,-34.63035 -77.375003,-77.37696 0,-42.746607 34.62839,-77.374998 77.375003,-77.374998 z"
         id="path870"
         sodipodi:nodetypes="sssssssssss" />
    </g>
    <path
       style="color:#000000;font-style:normal;font-variant:normal;font-weight:normal;font-stretch:normal;font-size:medium;line-height:normal;font-family:sans-serif;font-variant-ligatures:normal;font-variant-position:normal;font-variant-caps:normal;font-variant-numeric:normal;font-variant-alternates:normal;font-variant-east-asian:normal;font-feature-settings:normal;font-variation-settings:normal;text-indent:0;text-align:start;text-decoration:none;text-decoration-line:none;text-decoration-style:solid;text-decoration-color:#000000;letter-spacing:normal;word-spacing:normal;text-transform:none;writing-mode:lr-tb;direction:ltr;text-orientation:mixed;dominant-baseline:auto;baseline-shift:baseline;text-anchor:start;white-space:normal;shape-padding:0;shape-margin:0;inline-size:0;clip-rule:nonzero;display:inline;overflow:visible;visibility:visible;opacity:0.9;isolation:auto;mix-blend-mode:normal;color-interpolation:sRGB;color-interpolation-filters:linearRGB;solid-color:#000000;solid-opacity:1;vector-effect:none;fill:none;fill-opacity:0.487715;fill-rule:nonzero;stroke:none;stroke-width:1.3758;stroke-linecap:butt;stroke-linejoin:round;stroke-miterlimit:4;stroke-dasharray:none;stroke-dashoffset:7.35;stroke-opacity:1;color-rendering:auto;image-rendering:auto;shape-rendering:auto;text-rendering:auto;enable-background:accumulate;stop-color:#000000"
       d="m -134.5037,121.9843 c -9.45259,-34.250102 10.66386,-69.702979 44.914021,-79.15558 34.250126,-9.452594 69.70302,10.663853 79.155607,44.913943 9.45261136,34.250117 -10.66385,69.703017 -44.913981,79.155607 -34.250141,9.45262 -69.703047,-10.66383 -79.155647,-44.91397 z"
       id="path898"
       sodipodi:nodetypes="sssss" />
    <text
       xml:space="preserve"
       id="text872"
       style="font-style:normal;font-weight:normal;font-size:14.8167px;line-height:1.25;font-family:sans-serif;word-spacing:4.23333px;white-space:pre;fill:#2d774c;fill-opacity:1;stroke:none"
       x="-0.072383597"
       inkscape:transform-center-x="2.3173046"
       inkscape:transform-center-y="-23.452761"
       transform="rotate(-3.4016439,-70.239767,105.92762)"><textPath
         xlink:href="#path898"
         id="textPath902"
         style="font-style:normal;font-variant:normal;font-weight:bold;font-stretch:condensed;font-size:14.8167px;font-family:'Noto Serif';-inkscape-font-specification:'Noto Serif Bold Condensed';fill:#2d774c;fill-opacity:1">HUBBARDTON HISTORICAL SOCIETY</textPath></text>
    <path
       style="color:#000000;font-style:normal;font-variant:normal;font-weight:normal;font-stretch:normal;font-size:medium;line-height:normal;font-family:sans-serif;font-variant-ligatures:normal;font-variant-position:normal;font-variant-caps:normal;font-variant-numeric:normal;font-variant-alternates:normal;font-variant-east-asian:normal;font-feature-settings:normal;font-variation-settings:normal;text-indent:0;text-align:start;text-decoration:none;text-decoration-line:none;text-decoration-style:solid;text-decoration-color:#000000;letter-spacing:normal;word-spacing:normal;text-transform:none;writing-mode:lr-tb;direction:ltr;text-orientation:mixed;dominant-baseline:auto;baseline-shift:baseline;text-anchor:start;white-space:normal;shape-padding:0;shape-margin:0;inline-size:0;clip-rule:nonzero;display:inline;overflow:visible;visibility:visible;opacity:0.9;isolation:auto;mix-blend-mode:normal;color-interpolation:sRGB;color-interpolation-filters:linearRGB;solid-color:#000000;solid-opacity:1;vector-effect:none;fill:none;fill-opacity:0.487715;fill-rule:nonzero;stroke:none;stroke-width:1.61406;stroke-linecap:butt;stroke-linejoin:round;stroke-miterlimit:4;stroke-dasharray:none;stroke-dashoffset:7.35;stroke-opacity:1;color-rendering:auto;image-rendering:auto;shape-rendering:auto;text-rendering:auto;enable-background:accumulate;stop-color:#000000"
       d="m -263.04696,312.53649 c 23.70283,34.28865 70.74716,42.87616 105.03581,19.17331 34.28867,-23.70282 42.87618,-70.74715 19.17335,-105.03579 -23.70279,-34.28859 -70.74711,-42.8761 -105.03576,-19.17329 -34.28868,23.70283 -42.87619,70.74714 -19.1734,105.03577 z"
       id="path898-5"
       sodipodi:nodetypes="sssss" />
    <text
       xml:space="preserve"
       id="text872-6"
       style="font-style:normal;font-weight:normal;font-size:12.7px;line-height:1.25;font-family:sans-serif;white-space:pre;fill:#2d774c;fill-opacity:1;stroke:none;letter-spacing:0.52916667px"
       x="-0.072383597"
       transform="rotate(6.3375611,1380.2828,1338.9769)"
       inkscape:transform-center-x="-1.303845"
       inkscape:transform-center-y="54.18506"><textPath
         xlink:href="#path898-5"
         id="textPath902-1"
         style="font-style:normal;font-variant:normal;font-weight:bold;font-stretch:normal;font-size:12.7px;font-family:'Noto Serif';-inkscape-font-specification:'Noto Serif Bold';fill:#2d774c;fill-opacity:1;">⋄ ESTABLISHED 2000 ⋄</textPath></text>
    <text
       xml:space="preserve"
       id="text933"
       style="font-style:normal;font-weight:normal;font-size:38.8056px;line-height:0.65;font-family:sans-serif;letter-spacing:0.886354px;white-space:pre;shape-inside:url(#rect935);fill:#2d774c;fill-opacity:1;stroke:none;"
       transform="translate(162.3236,58.079798)"><tspan
         x="-278.66992"
         y="35.260321"><tspan
           style="font-style:normal;font-variant:normal;font-weight:bold;font-stretch:normal;font-size:38.8056px;font-family:'Noto Serif';-inkscape-font-specification:'Noto Serif Bold';fill:#2d774c;fill-opacity:1">H
</tspan></tspan><tspan
         x="-278.66992"
         y="61.45835"><tspan
           style="font-style:normal;font-variant:normal;font-weight:bold;font-stretch:normal;font-size:38.8056px;font-family:'Noto Serif';-inkscape-font-specification:'Noto Serif Bold';fill:#2d774c;fill-opacity:1">   H
</tspan></tspan><tspan
         x="-278.66992"
         y="87.656379"><tspan
           style="font-style:normal;font-variant:normal;font-weight:bold;font-stretch:normal;font-size:38.8056px;font-family:'Noto Serif';-inkscape-font-specification:'Noto Serif Bold';fill:#2d774c;fill-opacity:1">      S </tspan></tspan></text>
    <g
       transform="matrix(0.005874,0,0,-0.005874,-127.14119,117.95364)"
       fill="#09630b"
       id="g1057"
       style="fill:#2d774c;fill-opacity:1">
      <path
         d="m 6270,3183 c -23,-10 -48,-45 -60,-88 -6,-22 -15,-143 -20,-270 -5,-126 -9,-231 -9,-232 -1,-2 -35,-3 -76,-3 -149,0 -589,-117 -1320,-351 -299,-95 -445,-133 -625,-161 l -86,-14 -159,45 -160,45 -820,-48 c -451,-26 -1112,-58 -1470,-71 -546,-21 -692,-30 -910,-55 -143,-16 -265,-30 -272,-30 -6,0 -41,-25 -77,-56 l -66,-55 V 1529 C 140,1247 137,1198 110,969 93,831 66,630 50,522 1,186 1,191 46,99 67,55 89,20 95,20 c 25,0 859,273 1500,492 385,131 968,324 1295,428 401,127 720,236 978,333 210,79 382,140 382,136 0,-4 -6,-9 -12,-12 -7,-2 -10,-7 -7,-11 3,-3 104,25 225,63 529,166 723,218 829,222 78,3 91,-5 135,-84 118,-217 203,-267 448,-267 158,0 209,9 310,55 105,48 153,105 217,257 50,119 75,162 109,190 28,23 129,24 262,1 97,-16 182,-15 1939,16 1809,31 1838,32 1859,13 29,-26 83,-43 115,-36 38,9 80,52 93,96 l 11,38 h 156 c 86,0 1194,9 2464,20 2176,19 2309,19 2334,3 35,-23 124,-24 149,-1 18,15 119,17 1274,25 1313,10 1607,8 1627,-9 14,-11 244,-28 274,-21 11,3 26,0 34,-7 37,-30 95,61 79,124 -12,48 -34,58 -105,47 -117,-19 -657,-31 -1337,-31 h -674 l 44,33 c 39,29 69,73 82,118 4,15 32,18 218,23 243,8 1313,26 1553,26 l 160,1 35,31 c 34,32 35,34 34,104 -1,55 -7,81 -22,106 -34,55 -59,63 -201,63 -123,0 -126,0 -129,23 -6,42 -104,69 -144,39 -9,-7 -18,-24 -20,-37 l -3,-25 -480,2 c -264,1 -518,4 -564,8 -55,4 -87,3 -94,-4 -8,-8 -253,-11 -815,-11 h -803 l -37,25 c -60,41 -151,34 -207,-15 -19,-16 -158,-18 -2467,-24 l -2446,-7 -16,22 c -54,78 -194,77 -236,0 -10,-19 -20,-21 -113,-21 -96,1 -100,2 -75,16 54,29 42,101 -20,125 -15,6 -40,17 -55,25 -46,23 -92,17 -149,-18 l -53,-33 h -220 c -163,0 -231,4 -263,14 -35,12 -46,12 -67,1 -14,-7 -25,-19 -25,-27 0,-7 -7,-13 -15,-13 -8,0 -26,-5 -41,-12 -22,-10 -25,-17 -21,-43 l 5,-31 -1216,4 -1217,5 -40,27 c -23,16 -48,29 -55,31 -30,6 -80,-13 -99,-37 -19,-24 -21,-24 -180,-24 -141,0 -162,2 -168,17 -9,22 36,59 89,73 39,11 44,10 84,-19 28,-19 50,-28 61,-24 27,9 143,93 143,102 0,19 -69,81 -118,106 -40,21 -76,30 -141,36 -101,9 -128,18 -159,52 -22,23 -23,32 -20,127 2,91 0,104 -17,116 -20,15 -39,17 -65,7 z"
         fill="#09630b"
         id="path1055"
         style="fill:#2d774c;fill-opacity:1" />
    </g>
  </g>
</svg>
