<svg width="416.88mm" height="416.88mm" version="1.1" viewBox="0 0 416.88 416.88" xmlns="http://www.w3.org/2000/svg">
 <g transform="translate(-5.1086 -2.3601)">
  <circle cx="213.47" cy="210.72" r="208.36" fill="#fff"/>
  <g transform="translate(-3.6051 -46.434)">
   <g transform="matrix(2.4931 0 0 2.4931 399.14 -2.0722)" opacity=".9" shape-rendering="auto">
    <path d="m5.4874 104.01c0 43.346-35.139 78.486-78.486 78.486-43.346 0-78.486-35.139-78.486-78.486 0-43.346 35.139-78.486 78.486-78.486 43.346 0 78.486 35.139 78.486 78.486z" color="#000000" color-rendering="auto" dominant-baseline="auto" fill-opacity="0" image-rendering="auto" solid-color="#000000" stop-color="#000000" style="font-feature-settings:normal;font-variant-alternates:normal;font-variant-caps:normal;font-variant-east-asian:normal;font-variant-ligatures:normal;font-variant-numeric:normal;font-variant-position:normal;font-variation-settings:normal;inline-size:0;isolation:auto;mix-blend-mode:normal;shape-margin:0;shape-padding:0;text-decoration-color:#000000;text-decoration-line:none;text-decoration-style:solid;text-indent:0;text-orientation:mixed;text-transform:none;white-space:normal"/>
    <path d="m-72.998 24.414c-29.128 0-54.612 15.661-68.485 39.019-7.0576 11.883-11.111 25.757-11.111 40.575 0 43.946 35.65 79.596 79.596 79.596 43.946 0 79.596-35.65 79.596-79.596 0-43.946-35.65-79.594-79.596-79.594zm0 2.2188c42.747 0 77.375 34.628 77.375 77.375 0 42.747-34.628 77.377-77.375 77.377-42.747 0-77.375-34.63-77.375-77.377 0-42.747 34.628-77.375 77.375-77.375z" color="#000000" color-rendering="auto" dominant-baseline="auto" fill="#2d774c" image-rendering="auto" solid-color="#000000" stop-color="#000000" style="font-feature-settings:normal;font-variant-alternates:normal;font-variant-caps:normal;font-variant-east-asian:normal;font-variant-ligatures:normal;font-variant-numeric:normal;font-variant-position:normal;font-variation-settings:normal;inline-size:0;isolation:auto;mix-blend-mode:normal;shape-margin:0;shape-padding:0;text-decoration-color:#000000;text-decoration-line:none;text-decoration-style:solid;text-indent:0;text-orientation:mixed;text-transform:none;white-space:normal"/>
   </g>
   <path d="m63.813 302.05c-23.566-85.389 26.586-173.78 111.97-197.34 85.388-23.566 173.77 26.586 197.34 111.97 23.566 85.389-26.586 173.78-111.97 197.34-85.388 23.566-173.77-26.586-197.34-111.97z" color="#000000" color-rendering="auto" dominant-baseline="auto" fill="none" image-rendering="auto" opacity=".9" shape-rendering="auto" solid-color="#000000" stop-color="#000000" style="font-feature-settings:normal;font-variant-alternates:normal;font-variant-caps:normal;font-variant-east-asian:normal;font-variant-ligatures:normal;font-variant-numeric:normal;font-variant-position:normal;font-variation-settings:normal;inline-size:0;isolation:auto;mix-blend-mode:normal;shape-margin:0;shape-padding:0;text-decoration-color:#000000;text-decoration-line:none;text-decoration-style:solid;text-indent:0;text-orientation:mixed;text-transform:none;white-space:normal"/>
   <g fill="#2d774c">
    <g>
     <g transform="matrix(2.4887 -.14793 .14793 2.4887 383.16 -11.997)" style="white-space:pre" aria-label="HUBBARDTON HISTORICAL SOCIETY">
      <path d="m-134.78 121.68-0.72781 0.13834-0.0996-0.52402q-0.0526-0.27656-0.27777-0.42982-0.23976-0.15049-0.76378-0.0509l-7.1179 1.353q-0.53857 0.10238-0.67174 0.35392-0.1505 0.23976-0.0924 0.54543l0.0858 0.45124-0.7278 0.13835-0.819-4.3086 0.7278-0.13834 0.0802 0.42212q0.0581 0.30568 0.28054 0.44438 0.20511 0.12692 0.74368 0.0245l2.9112-0.55338-0.61425-3.2314-2.8821 0.54784q-0.56769 0.10791-0.70916 0.31579-0.15602 0.21064-0.0951 0.53087l0.0747 0.39302-0.72781 0.13834-0.819-4.3086 0.7278-0.13835 0.0996 0.52402q0.0581 0.30568 0.28054 0.44438 0.20787 0.14147 0.77556 0.0336l7.1179-1.353q0.52402-0.0996 0.68005-0.31025 0.1387-0.22244 0.0834-0.51356l-0.0996-0.52401 0.72781-0.13835 0.819 4.3086-0.7278 0.13835-0.0747-0.39301q-0.0581-0.30568-0.28054-0.44439-0.23975-0.15049-0.79288-0.0453l-3.3188 0.63085 0.61425 3.2314 3.3479-0.63638q0.52402-0.0996 0.69737-0.29847 0.15603-0.21064 0.0979-0.51632l-0.0802-0.42212 0.7278-0.13835z"/>
      <path d="m-136.66 106.63q0.0326 1.0811-0.26915 1.8907-0.31697 0.79519-1.0441 1.2618-0.72755 0.4518-1.942 0.48839l-5.687 0.17136q-0.60721 0.0183-0.76298 0.26016-0.15577 0.24187-0.14506 0.59731l0.0116 0.38506-0.7405 0.0223-0.13566-4.5022 0.7405-0.0223 0.0112 0.37025q0.0107 0.35544 0.19557 0.58705 0.17005 0.23205 0.82169 0.21241l5.7315-0.17269q1.2588-0.0379 1.7468-0.57145 0.47311-0.53307 0.44678-1.4069-0.025-0.82936-0.61775-1.3155-0.60802-0.5005-1.7188-0.46703l-5.7611 0.17358q-0.60721 0.0183-0.76298 0.26017t-0.14506 0.59731l0.0112 0.37025-0.7405 0.0223-0.10219-3.3915 0.7405-0.0223 0.0121 0.39987q0.0107 0.35544 0.19557 0.58704 0.1696 0.21725 0.82124 0.19761l5.7315-0.17269q1.4958-0.0451 2.4081 0.71308 0.89744 0.75861 0.9492 2.4766z"/>
      <path d="m-136.88 101.56-0.73593-0.0851 0.0596-0.51515q0.0358-0.30909-0.13515-0.50785-0.18392-0.21518-0.74322-0.27989l-7.1532-0.82766q-0.57403-0.06642-0.77619 0.13392-0.20217 0.20034-0.23282 0.46528l-0.0562 0.48572-0.73593-0.0851 0.44959-3.8857q0.21117-1.8251 0.93834-2.6956t2.0813-0.71378q0.98614 0.1141 1.4711 0.69226 0.47026 0.57646 0.63703 1.3266l0.0736 0.0085q0.30034-0.91984 1.0308-1.432 0.71744-0.52853 1.8802-0.39399 2.8701 0.33208 2.441 4.0411zm-5.4922-4.4837q0.10048-0.86839-0.31322-1.2891-0.412-0.43547-1.4129-0.55128-1.0303-0.11921-1.459 0.23391-0.44338 0.35142-0.54046 1.1904l-0.0613 0.52987 3.7238 0.43086zm5.1154 0.26372q0.0971-0.83896-0.31322-1.2891-0.42331-0.46661-1.5566-0.59774-1.1039-0.12772-1.6633 0.19535-0.57244 0.30666-0.67292 1.175l-0.10388 0.89783 4.2095 0.48705z"/>
      <path d="m-135.8 92.725-0.71737-0.18498 0.12949-0.50216q0.0777-0.3013-0.0644-0.52156-0.15277-0.23831-0.69797-0.3789l-6.9728-1.798q-0.55955-0.14429-0.78721 0.02653-0.22766 0.17081-0.29426 0.42907l-0.12209 0.47346-0.71736-0.18498 0.97671-3.7877q0.45876-1.7791 1.2981-2.5419 0.83936-0.76284 2.1593-0.42248 0.96128 0.24788 1.3626 0.88692 0.38702 0.63535 0.44964 1.4013l0.0717 0.0185q0.42329-0.87014 1.2169-1.2775 0.78297-0.42546 1.9164-0.13318 2.7977 0.72144 1.8654 4.337zm-4.8275-5.1926q0.21828-0.8465-0.13399-1.3199-0.34858-0.48772-1.3242-0.7393-1.0043-0.25898-1.4772 0.03221-0.48727 0.28749-0.69815 1.1053l-0.13319 0.51651 3.6299 0.93602zm5.0312 0.96074q0.21088-0.8178-0.134-1.3199-0.35552-0.52012-1.4603-0.80499-1.076-0.27748-1.6744-0.03393-0.609 0.2255-0.82728 1.072l-0.22568 0.87519 4.1034 1.0581z"/>
      <path d="m-133.73 84.566-0.68364-0.28541 0.0571-0.13673q0.13129-0.31448 0.0312-0.61316-0.11376-0.30439-0.66281-0.75839l-6.9745-5.9464 0.70212-1.6818 9.3008 0.91258q0.54135 0.04939 0.81043-0.09517 0.27479-0.15823 0.41178-0.48638l0.0628-0.1504 0.68365 0.28541-1.6611 3.9788-0.68365-0.28541 0.17125-0.41019q0.097-0.23244 0.0425-0.44789-0.0546-0.21545-0.31434-0.32391-0.16408-0.0685-0.37262-0.1074-0.20855-0.0389-0.37608-0.06067l-1.5055-0.16289-1.1987 2.8713 1.0389 0.81906q0.14695 0.10952 0.36453 0.28063 0.2096 0.15173 0.38735 0.22594 0.54692 0.22833 0.78667-0.34594l0.19408-0.46488 0.68365 0.28541zm-2.8576-4.5006 0.98752-2.3654-2.7819-0.37464q-0.53563-0.06306-1.0792-0.1455-0.54361-0.08244-1.0154-0.18307 0.3782 0.28634 0.80538 0.60919 0.42718 0.32284 0.8213 0.64795z"/>
      <path d="m-129.78 75.299-0.63463-0.3822 0.22932-0.38078q0.15288-0.25385 0.14061-0.52068-0.0173-0.28717-0.53771-0.60057l-6.2067-3.7379q-0.5204-0.3134-0.78996-0.18171-0.26193 0.119-0.39952 0.34747l-0.22932 0.38078-0.63463-0.3822 2.1709-3.6047q1.009-1.6754 2.0463-2.0193 1.045-0.35657 2.2 0.33904 0.71079 0.42806 1.0632 0.93431 0.33968 0.4986 0.41758 1.0298 0.0779 0.53121-0.0271 1.0215l3.4173 0.24194q0.71395 0.04945 1.113-0.03883t0.58255-0.3929l0.0382-0.06346 0.63463 0.3822-0.22932 0.38078q-0.5733 0.95195-1.1331 1.3932-0.55211 0.42853-1.454 0.31778l-3.5848-0.39468-0.4357 0.72348 2.5258 1.5212q0.5204 0.3134 0.75939 0.23248 0.23394-0.10126 0.40211-0.3805l0.18345-0.30462 0.63464 0.3822zm-2.6173-6.1943q0.46629-0.77425 0.18271-1.3947-0.28358-0.62048-1.2228-1.1861-0.92657-0.55801-1.5645-0.47521-0.63794 0.0828-1.0813 0.81898l-0.34398 0.57117 3.6936 2.2244z"/>
      <path d="m-124.99 67.412-0.57243-0.47028 0.3386-0.41215q0.18811-0.22897 0.1407-0.49803-0.038-0.28051-0.46161-0.62852l-5.5754-4.5805q-0.4236-0.348-0.69266-0.30059-0.27111 0.02656-0.47803 0.27843l-0.30098 0.36636-0.57243-0.47028 2.7182-3.3086q1.3638-1.66 3.154-1.7617 1.7881-0.12254 3.7344 1.4764 1.2479 1.0252 1.8689 2.2066 0.62103 1.1814 0.49868 2.404-0.12234 1.2226-1.0817 2.3904zm1.8546-3.6346q0.82769-1.0075 0.31216-2.2939-0.50613-1.2979-2.1547-2.6523-3.3086-2.7182-4.9922-0.66891l-0.44206 0.53808 6.8348 5.6151z"/>
      <path d="m-117.64 58.963-0.50217-0.54467 0.30501-0.28122q0.26144-0.24104 0.32526-0.52156 0.0538-0.29142-0.3781-0.75983l-5.4234-5.8824-0.74075 0.68295q-0.42484 0.39169-0.37733 0.7711 0.0375 0.36852 0.33622 0.75813l0.50627 0.70212-0.64271 0.59256-1.8647-2.1099 5.9586-5.4937 1.9518 2.0296-0.64271 0.59256-0.64787-0.57155q-0.37501-0.31931-0.73928-0.38652-0.37431-0.07811-0.79915 0.31358l-0.74074 0.68295 5.4134 5.8715q0.44191 0.47931 0.73672 0.44933 0.28477-0.04087 0.5571-0.29195l0.29412-0.27117 0.50217 0.54467z"/>
      <path d="m-108.79 51.897q-1.2217 0.83829-2.4137 0.82958-1.192-0.0087-2.2909-0.74611-1.0867-0.74578-2.0172-2.1019-0.9305-1.3561-1.227-2.6262-0.28424-1.2785 0.14487-2.3815 0.43294-1.1236 1.6547-1.9619 1.1484-0.788 2.3404-0.77928 1.1836-0.0035 2.2947 0.72551 1.1028 0.71679 2.0333 2.0729t1.2109 2.6552q0.27202 1.2868-0.1487 2.4021-0.42072 1.1153-1.5814 1.9116zm-0.51974-0.75747q0.97737-0.67064 0.70152-1.9369-0.27584-1.2662-1.483-3.0255-1.2071-1.7593-2.281-2.46-1.0822-0.71296-2.0474-0.05071-0.97738 0.67064-0.71374 1.9453 0.26746 1.254 1.4746 3.0133 1.2071 1.7593 2.2893 2.4722 1.0944 0.70458 2.0596 0.04232z"/>
      <path d="m-104.34 48.738-0.31692-0.66962 0.3616-0.17114q0.32142-0.15212 0.45258-0.39452 0.12483-0.25579-0.15406-0.84506l-3.0678-6.482q-0.25987-0.54909-0.53048-0.60133-0.25722-0.05858-0.53846 0.07453l-0.41517 0.19649-0.31692-0.66962 2.799-1.3247 7.1953 5.0203-2.5417-5.3704q-0.2472-0.52231-0.52415-0.58794-0.26355-0.07197-0.5314 0.0548l-0.42856 0.20283-0.31692-0.66962 3.0535-1.4452 0.31692 0.66962-0.41517 0.19649q-0.29463 0.13944-0.39973 0.40228t0.15478 0.81193l3.784 7.9953-1.2589 0.59581-7.9676-5.4744 2.8333 5.9864q0.27889 0.58927 0.52906 0.66758 0.24382 0.06492 0.55185-0.08086l0.42856-0.20283 0.31692 0.66962z"/>
      <path d="m-87.839 42.177-0.12153-0.7308 0.52618-0.0875q0.2777-0.04618 0.43611-0.26779 0.15598-0.23622 0.06847-0.7624l-1.1886-7.1472q-0.08994-0.54079-0.33834-0.67972-0.23622-0.15598-0.54316-0.10493l-0.4531 0.07535-0.12154-0.7308 4.3263-0.71948 0.12154 0.7308-0.42386 0.07049q-0.30694 0.05104-0.45073 0.27022-0.13161 0.20213-0.04167 0.74292l0.48614 2.9232 3.2447-0.53961-0.48128-2.894q-0.0948-0.57002-0.29936-0.71625-0.20699-0.16084-0.52854-0.10736l-0.39463 0.06563-0.12154-0.7308 4.3263-0.71948 0.12154 0.7308-0.52618 0.08751q-0.30694 0.05105-0.45073 0.27022-0.14622 0.20456-0.05143 0.77458l1.1886 7.1472q0.08751 0.52618 0.2945 0.68701 0.21918 0.14379 0.5115 0.09518l0.52618-0.08751 0.12153 0.7308-4.3263 0.71948-0.12153-0.7308 0.39463-0.06563q0.30694-0.05104 0.45073-0.27022 0.15598-0.23622 0.06361-0.79163l-0.5542-3.3324-3.2447 0.53961 0.55906 3.3617q0.0875 0.52618 0.28231 0.70406 0.20699 0.16084 0.51393 0.10979l0.42386-0.07049 0.12153 0.7308z"/>
      <path d="m-77.357 40.645-0.03098-0.74019 0.53293-0.0223q0.26647-0.01115 0.45148-0.19685 0.1992-0.20112 0.17628-0.74886l-0.30233-7.2242q-0.02416-0.57735-0.23885-0.74632-0.2005-0.18439-0.46697-0.17324l-0.53294 0.0223-0.03098-0.74019 4.5003-0.18834 0.03098 0.74019-0.53294 0.0223q-0.29608 0.01239-0.48047 0.21289-0.18501 0.1857-0.16085 0.76304l0.30233 7.2242q0.0223 0.53293 0.2228 0.71733 0.21531 0.18378 0.49658 0.172l0.53294-0.0223 0.03098 0.74019z"/>
      <path d="m-68.999 40.736q-1.1982-0.06756-1.8621-0.40179-0.66297-0.34902-0.91819-0.82346-0.23959-0.4884-0.21123-0.99136 0.04003-0.71007 0.48572-0.98175 0.46131-0.28564 1.0235-0.25394-0.04131 1.2591 0.45539 1.9252 0.51232 0.65217 1.2816 0.69554 0.73966 0.0417 1.1649-0.39437 0.42527-0.43607 0.4653-1.1461 0.04587-0.81363-0.48958-1.3187-0.53545-0.50508-1.5714-1.0829-1.2955-0.71117-1.7855-1.4956-0.48919-0.79927-0.42663-1.9088 0.04921-0.8728 0.49928-1.4856 0.46487-0.61192 1.2089-0.9113 0.74488-0.31417 1.6473-0.26329 0.94676 0.05338 1.5391 0.33906 0.60714 0.28651 0.88048 0.70261 0.28814 0.41693 0.26312 0.86073-0.02836 0.50297-0.4305 0.79194-0.38734 0.28981-1.201 0.24394 0.02669-0.47338-0.11018-0.94115-0.12124-0.48172-0.42918-0.81073-0.29314-0.32817-0.78132-0.3557-0.56214-0.03169-0.93886 0.33291-0.37672 0.36461-0.41592 1.0599-0.02419 0.429 0.11852 0.79321 0.15834 0.35025 0.59691 0.73114 0.4542 0.36693 1.3045 0.81556 1.2964 0.69638 1.8168 1.4677 0.53607 0.7574 0.47268 1.8817-0.05338 0.94676-0.52241 1.6327-0.4682 0.67109-1.2739 1.0115-0.80572 0.34042-1.856 0.2812z"/>
      <path d="m-63.28 41.119 0.1308-0.7292 0.40835 0.07325q0.35001 0.06278 0.61213-0.05578 0.26474-0.13315 0.37722-0.76026l1.4127-7.8753-0.99171-0.17789q-0.56877-0.10202-0.84247 0.165-0.27108 0.25244-0.40116 0.72586l-0.25382 0.82756-0.86045-0.15434 0.55538-2.7605 7.9774 1.431-0.43871 2.7814-0.86045-0.15434 0.06423-0.86156q0.02799-0.49173-0.13845-0.82265-0.16382-0.3455-0.7326-0.44753l-0.99171-0.17789-1.41 7.8607q-0.1151 0.64169 0.08685 0.85856 0.20457 0.20228 0.56916 0.26768l0.39377 0.07063-0.1308 0.7292z"/>
      <path d="m-52.302 43.905q-1.4063-0.46644-2.12-1.4212t-0.79056-2.2759q-0.06288-1.3165 0.45487-2.8776 0.51775-1.561 1.3503-2.565 0.84657-0.99927 1.9847-1.3243 1.1568-0.3344 2.5631 0.13204 1.322 0.43845 2.0356 1.3932 0.71828 0.9407 0.80929 2.2666 0.09567 1.3118-0.42208 2.8728-0.51775 1.561-1.383 2.5697-0.86064 0.9946-2.0034 1.3337t-2.4788-0.10406zm0.28919-0.87193q1.1251 0.37315 1.967-0.61205t1.5136-3.0103q0.67168-2.0251 0.58074-3.3041-0.08627-1.2931-1.1973-1.6615-1.1251-0.37315-1.981 0.60739-0.83724 0.97114-1.5089 2.9963-0.67167 2.0251-0.5854 3.3182 0.10034 1.2977 1.2113 1.6662z"/>
      <path d="m-47.113 45.567 0.33576-0.66038 0.39623 0.20146q0.26415 0.13431 0.52942 0.10296 0.28519-0.03784 0.56052-0.57935l3.2838-6.4585q0.27533-0.54151 0.12466-0.80095-0.13745-0.25273-0.37519-0.3736l-0.39623-0.20146 0.33576-0.66038 3.7509 1.9071q1.7434 0.88642 2.1607 1.8964 0.4305 1.0167-0.18059 2.2186-0.37606 0.73962-0.85576 1.1274-0.47299 0.37452-0.99726 0.49027t-1.0208 0.04614l0.0035 3.4259q0.0018 0.71566 0.11845 1.1074 0.11664 0.39174 0.43362 0.55291l0.06604 0.03358-0.33576 0.66038-0.39623-0.20146q-0.99057-0.50364-1.4707-1.0304-0.46697-0.52-0.42111-1.4275l0.1369-3.6038-0.75283-0.38277-1.3363 2.6283q-0.27533 0.54151-0.1775 0.77409 0.11775 0.22609 0.40832 0.37382l0.31698 0.16117-0.33576 0.66038zm5.9909-3.0542q0.80566 0.40963 1.4042 0.08234t1.0955-1.3047q0.49021-0.96415 0.36193-1.5945-0.12829-0.63037-0.89432-1.0199l-0.59434-0.30219-1.9541 3.8434z"/>
      <path d="m-38.967 49.879 0.40702-0.61901 0.44568 0.29306q0.22284 0.14653 0.48147 0.10379 0.27915-0.04698 0.58034-0.50504l3.9725-6.0415q0.31748-0.48282 0.24184-0.74535-0.05512-0.26677-0.27796-0.4133l-0.44568-0.29306 0.40702-0.61901 3.7636 2.4747-0.40702 0.61901-0.44568-0.29306q-0.2476-0.16281-0.51437-0.10769-0.25863 0.04274-0.5761 0.52556l-3.9725 6.0415q-0.29306 0.44568-0.23794 0.71245 0.0675 0.27491 0.30272 0.42958l0.44568 0.29306-0.40702 0.61901z"/>
      <path d="m-30.983 55.852q-1.1322-0.9326-1.4651-2.0898-0.32148-1.1478 0.06213-2.4059 0.40447-1.2601 1.4501-2.5296 1.0268-1.2466 2.1881-1.8641 1.1707-0.62894 2.3703-0.52387 1.1996 0.10507 2.3318 1.0377 1.1437 0.94202 1.3952 1.8019 0.26298 0.86927-0.18919 1.4182-0.32971 0.40028-0.87602 0.41099-0.53689-7.26e-4 -1.1659-0.51884 0.31087-0.37741 0.49996-0.81672 0.19852-0.45075 0.14675-0.87731-0.04234-0.43799-0.47693-0.79596-0.91492-0.75362-2.0325-0.11928-1.1081 0.6229-2.4647 2.2698-1.3942 1.6926-1.6567 2.8969-0.24165 1.2023 0.83338 2.0878 0.51464 0.42391 1.0011 0.55582 0.49584 0.12048 0.95468 0.07612 0.45885-0.04436 0.84706-0.1661 0.0121 0.12514-0.0552 0.30006-0.05788 0.16348-0.1615 0.28928-0.25435 0.30879-0.75425 0.4729-0.48846 0.17353-1.1895-7.89e-4t-1.5931-0.9091z"/>
      <path d="m-28.077 58.015 0.54786-0.49868 0.09974 0.10957q0.22939 0.25202 0.54237 0.2877 0.32394 0.02571 0.9676-0.27967l8.3388-3.8035 1.2268 1.3477-4.7621 8.0412q-0.2738 0.46961-0.25666 0.77458 0.02711 0.31593 0.26647 0.5789l0.10971 0.12053-0.54786 0.49868-2.9023-3.1886 0.54786-0.49868 0.29921 0.32872q0.16955 0.18627 0.38785 0.228 0.2183 0.04172 0.42649-0.14777 0.13149-0.11968 0.25497-0.29218t0.21409-0.31508l0.78458-1.2952-2.0945-2.301-1.1817 0.59476q-0.16141 0.08681-0.40851 0.21155-0.22617 0.12572-0.36861 0.25538-0.43829 0.39894-0.0194 0.85915l0.3391 0.37255-0.54786 0.49868zm5.287-0.68502 1.7254 1.8956 1.5165-2.3621q0.28377-0.45865 0.58847-0.91631t0.59549-0.84256q-0.41946 0.22152-0.89273 0.47198t-0.93459 0.47002z"/>
      <path d="m-21.371 65.527 0.6131-0.41587 0.29943 0.44143q0.14971 0.22072 0.40498 0.28031 0.27585 0.06354 0.72954-0.2442l5.9838-4.0589q0.47822-0.32438 0.50892-0.59586 0.04296-0.27979-0.1317-0.53729l-0.26616-0.39238 0.6131-0.41587 2.5285 3.7276-0.6131 0.41587-0.27447-0.40464q-0.20794-0.30655-0.45489-0.35388-0.23863-0.03507-0.68006 0.26435l-6.695 4.5413 1.3474 1.9864q0.2412 0.3556 0.65236 0.38107t1.0255-0.23014l1.0444-0.43988 0.39092 0.57631-2.7515 1.7768z"/>
      <path d="m-12.322 82.385q-0.41491-1.1262-0.37247-1.8681 0.05634-0.74711 0.39001-1.1701 0.3527-0.41417 0.8254-0.58833 0.66735-0.24587 1.094 0.05487 0.44563 0.30952 0.64028 0.83784-1.1715 0.4632-1.585 1.184-0.39441 0.72955-0.12805 1.4525 0.25612 0.69516 0.82541 0.91175 0.5693 0.21659 1.2366-0.02928 0.76467-0.28173 1.0149-0.97396t0.36806-1.8725q0.13683-1.4715 0.66148-2.2333 0.53856-0.76687 1.5813-1.151 0.82028-0.30222 1.5615-0.13319 0.74638 0.18293 1.3171 0.74637 0.58467 0.55832 0.89713 1.4064 0.32783 0.8898 0.30149 1.5469-0.021216 0.67101-0.29415 1.0874-0.26782 0.43027-0.68491 0.58394-0.47271 0.17416-0.89785-0.07975-0.42002-0.24001-0.70175-1.0047 0.4449-0.16391 0.81955-0.47564 0.39368-0.30294 0.57295-0.71638 0.1844-0.39953 0.015361-0.85834-0.19465-0.52832-0.67906-0.72881t-1.1379 0.04025q-0.40319 0.14855-0.68052 0.42442-0.2583 0.28465-0.43319 0.83858-0.15586 0.56271-0.22903 1.5213-0.12292 1.4664-0.62343 2.2508-0.48148 0.79321-1.5381 1.1825-0.8898 0.32783-1.7057 0.17051-0.80199-0.16244-1.435-0.76613-0.63296-0.60369-0.99665-1.5908z"/>
      <path d="m-9.7541 91.099q-0.31888-1.447 0.13626-2.5486t1.5509-1.8438q1.0989-0.72769 2.705-1.0816 1.6061-0.35395 2.8947-0.15241 1.2917 0.21601 2.1533 1.0275 0.87924 0.82277 1.1981 2.2697 0.29974 1.3601-0.15539 2.4618-0.44067 1.0985-1.5332 1.8551-1.0781 0.75344-2.6842 1.1074-1.6061 0.35395-2.9155 0.12666-1.2949-0.23048-2.171-1.0388t-1.179-2.1829zm0.89711-0.1977q0.2551 1.1576 1.5324 1.3768 1.2773 0.2192 3.3609-0.23998 2.0836-0.45918 3.1359-1.1918 1.0668-0.73578 0.81489-1.8789-0.2551-1.1576-1.5355-1.3912-1.2628-0.22239-3.3464 0.23679-2.0836 0.45918-3.1504 1.195-1.0636 0.75025-0.8117 1.8933z"/>
      <path d="m-8.3508 101.19q-0.10333-1.4632 0.50662-2.5015 0.61099-1.0235 1.7875-1.6116 1.1923-0.57436 2.8329-0.69022 1.611-0.11376 2.8584 0.30317 1.2622 0.41589 2.012 1.3581 0.7498 0.94224 0.85313 2.4055 0.10437 1.478-0.34596 2.2525-0.44929 0.78926-1.1587 0.83936-0.5173 0.0365-0.90124-0.35226-0.36916-0.38983-0.42657-1.2027 0.48774-0.0344 0.93652-0.19981 0.46356-0.16642 0.73724-0.49767 0.28846-0.3323 0.2488-0.89393-0.083498-1.1824-1.313-1.556-1.2147-0.37468-3.3431-0.22438-2.1874 0.15447-3.2415 0.79334-1.0382 0.6526-0.94012 2.0419 0.046967 0.6651 0.28624 1.1087 0.25405 0.44252 0.60217 0.74472t0.70371 0.49989q-0.082417 0.0949-0.2556 0.16659-0.1584 0.0706-0.32098 0.0821-0.39906 0.0282-0.86228-0.22133-0.46218-0.23473-0.81849-0.86312-0.3563-0.6284-0.43771-1.7812z"/>
      <path d="m-8.0612 105.08 0.7403 0.0282-0.020334 0.53301q-0.010167 0.26651 0.16016 0.46576 0.18457 0.21463 0.73239 0.23553l7.2253 0.27564q0.57743 0.022 0.76301-0.17848 0.19982-0.18513 0.20999-0.45164l0.020334-0.53301 0.7403 0.0282-0.17171 4.501-0.7403-0.0282 0.020334-0.53302q0.011297-0.29611-0.17384-0.49593-0.17033-0.19926-0.74776-0.22129l-7.2253-0.27563q-0.53301-0.0203-0.73283 0.1648-0.20038 0.19994-0.21112 0.48125l-0.020334 0.53301-0.7403-0.0282z"/>
      <path d="m-8.2119 110.29 0.73307 0.10696-0.074876 0.51316q-0.044926 0.30789 0.10534 0.50949 0.14813 0.21628 0.67594 0.29329l7.1841 1.0483q0.61578 0.0899 0.80701-0.0919 0.19123-0.18173 0.23401-0.47496l0.070598-0.48382 0.73307 0.10696-1.0418 7.1401-2.6748-0.34538 0.13264-0.90901 0.68298 0.0398q0.53423 0.033 0.87207-0.12731 0.33784-0.16033 0.4063-0.6295l0.29737-2.0379-3.724-0.54338-0.44284 3.0349-0.85036-0.12408 0.44284-3.0349-4.1932-0.61185-0.35085 2.4045q-0.068458 0.46916 0.22414 0.72149 0.30512 0.26912 0.78039 0.39837l0.66159 0.18637-0.13264 0.90901-2.6577-0.46266z"/>
      <path d="m-9.9088 120.16 0.71268 0.20232-0.1133 0.39909q-0.09711 0.34209-0.00506 0.61465 0.1063 0.27662 0.7192 0.4506l7.6969 2.185 0.27515-0.96924q0.1578-0.55589-0.080826-0.85466-0.22438-0.29473-0.6826-0.47101l-0.79838-0.33446 0.23873-0.84096 2.692 0.8258-2.2133 7.7967-2.7244-0.71177 0.23873-0.84096 0.85098 0.14916q0.48655 0.0765 0.83231-0.0564 0.36002-0.12883 0.51782-0.68472l0.27515-0.96924-7.6826-2.1809q-0.62715-0.17803-0.86294 1e-3 -0.22153 0.18355-0.32268 0.53988l-0.10925 0.38485-0.71268-0.20232z"/>
      <path d="m-12.529 128.4 0.67887 0.2966-0.1839 0.4209q-0.15424 0.35301-0.09216 0.65501 0.06208 0.302 0.64591 0.55709l2.0366 0.88982 5.6197-0.1317q0.47679-0.018 0.70497-0.0962 0.22818-0.0782 0.38242-0.43117l0.071186-0.16293 0.67887 0.29661-1.7441 3.9917-0.67887-0.2966 0.071186-0.16293q0.15424-0.35301 0.074359-0.61428-0.08581-0.24769-0.3302-0.35447-0.16293-0.0712-0.39032-0.10586-0.22739-0.0347-0.43355-0.0439l-2.2805 0.0385q-0.49037 0.0121-0.86962-8e-3 -0.36567-0.0142-0.71947-0.0556 0.53136 0.5232 1.2749 1.3008l1.2648 1.3611q0.23173 0.24677 0.43118 0.38242 0.19351 0.14922 0.3157 0.20261 0.33943 0.1483 0.56419 4e-3 0.23833-0.13841 0.40443-0.51857l0.10678-0.2444 0.67887 0.29661-1.3466 3.0821-0.67887-0.29661 0.071186-0.16293q0.13644-0.31228-0.00368-0.5837-0.14012-0.27142-0.6401-0.82942l-3.4532-3.9018-2.0094-0.87796q-0.61098-0.26695-0.86882-0.1209-0.25784 0.14605-0.39428 0.45833l-0.21356 0.48878-0.67887-0.2966z"/>
     </g>
     <g transform="matrix(2.4778 .2752 -.2752 2.4779 788.66 -361.53)" style="white-space:pre" aria-label="⋄ ESTABLISHED 2000 ⋄">
      <path d="m-258.23 312.44-0.20248 1.5655 1.5481 0.20023 0.20248-1.5655zm-1.257-1.6305 4.4356 0.57369-0.57594 4.453-4.4356-0.5737z"/>
      <path d="m-254.29 323.18 0.45079-0.49985 0.39611 0.35724q0.19805 0.17861 0.42458 0.21188 0.22652 0.0333 0.56674-0.34397l4.1082-4.5552q0.36573-0.40554 0.31783-0.63686-0.0385-0.22282-0.24596-0.40995l-0.39611-0.35723 0.4508-0.49985 5.2343 4.7206-1.5273 1.7693-0.66018-0.59538 0.3526-0.48579q0.27698-0.38298 0.29712-0.68975 0.0381-0.3077-0.25429-0.57137l-1.5844-1.4289-2.1264 2.3578 2.2352 2.0158-0.51033 0.56586-2.2352-2.0158-2.3986 2.6596 1.8862 1.7011q0.28293 0.25517 0.59358 0.17619 0.32859-0.0799 0.65643-0.3486l0.47521-0.37522 0.65075 0.58688-1.631 1.6758z"/>
      <path d="m-245.31 330.87q-0.91765-0.65993-1.2981-1.262-0.36272-0.60499-0.34197-1.0906 0.0282-0.49596 0.26544-0.8259 0.25211-0.35057 0.56538-0.43814 0.32068-0.0979 0.65549 2e-3 0.33481 0.1 0.63382 0.31502-0.63026 0.87641-0.56471 1.6118 0.0759 0.74285 0.6945 1.1877 0.60833 0.43748 1.1681 0.35512 0.57011-0.0749 0.91119-0.54923 0.37816-0.52584 0.17497-1.1569-0.19288-0.62364-0.80687-1.597-0.50671-0.81805-0.69959-1.4417-0.18546-0.63395-0.0893-1.1592 0.1139-0.52817 0.47722-1.0334 0.45231-0.62895 1.1159-0.85566 0.66361-0.2267 1.4161-0.0767 0.76277 0.15746 1.4845 0.6765 1.1342 0.81564 1.4079 1.5444 0.29146 0.72582-0.0719 1.231-0.25952 0.36087-0.7571 0.37846-0.48728 0.025-1.1265-0.43471 0.20762-0.28869 0.33147-0.7002 0.13417-0.40409 0.0676-0.81178-0.0666-0.40768-0.46872-0.69686-0.41243-0.2966-0.89971-0.27159-0.46955 0.0221-0.80322 0.4861-0.20761 0.2887-0.25153 0.63255-0.0439 0.34385 0.14931 0.85824 0.20064 0.50408 0.69126 1.2793 0.75057 1.1968 0.84833 2.0179 0.0978 0.82117-0.45094 1.5842-0.47455 0.65988-1.1959 0.92331-0.70358 0.26053-1.5402 0.0969-0.83656-0.16361-1.6924-0.77904z"/>
      <path d="m-239.98 334.27 0.33347-0.58468 0.46334 0.26426q0.2427 0.13842 0.46636 0.10516 0.23469-0.027 0.50524-0.50134l3.3662-5.902-0.88255-0.50336q-0.49643-0.28314-0.80352-0.1805t-0.55885 0.44153l-0.46732 0.63993-0.73914-0.42157 1.2758-2.1087 6.8728 3.9199-1.1655 2.1716-0.73914-0.42156 0.31288-0.72802q0.16351-0.38921 0.0955-0.70578-0.068-0.31657-0.56443-0.59971l-0.88254-0.50336-3.3662 5.902q-0.27056 0.47437-0.18532 0.6838 0.0963 0.21573 0.33896 0.35416l0.46334 0.26426-0.33347 0.58469z"/>
      <path d="m-234.63 337.34 0.26084-0.62051 0.14049 0.0591q0.31611 0.13289 0.59575 0.0576 0.29134-0.0704 0.70013-0.5185l5.4344-5.8161 1.6039 0.67425-0.4519 7.9244q-0.0311 0.56554 0.10582 0.82975 0.14863 0.26912 0.42961 0.38724l0.21074 0.0886-0.26085 0.62051-3.8635-1.6241 0.26084-0.62051 0.4566 0.19194q0.17561 0.0738 0.38381 0.0374 0.2082-0.0365 0.31156-0.28233 0.0591-0.14049 0.0781-0.28404 0.0239-0.15525 0.0282-0.26368l0.0824-1.343-2.845-1.1959-0.76277 0.86413q-0.10589 0.1208-0.23639 0.30015-0.12557 0.16763-0.18463 0.30813-0.0935 0.22244 0.0212 0.40842 0.11469 0.18598 0.31372 0.26964l0.49172 0.20671-0.26084 0.6205zm4.2081-2.3089 2.3649 0.99415 0.18663-2.1809q0.0502-0.44728 0.10476-1.003 0.0662-0.55078 0.1448-0.99991-0.26285 0.33035-0.61684 0.74638-0.34906 0.40432-0.6618 0.75503z"/>
      <path d="m-225 341.27 0.18054-0.64843 0.50162 0.13966q0.26916 0.0749 0.49015-9e-3 0.22099-0.0835 0.36746-0.60958l1.6316-5.8604q0.13625-0.48938-0.0186-0.6907-0.14264-0.19791-0.39957-0.26944l-0.50162-0.13966 0.18053-0.64844 3.5725 0.99464q1.7496 0.4871 2.4683 1.2673 0.73102 0.78358 0.41082 1.9336-0.22481 0.80749-0.76884 1.1042t-1.2905 0.32623l-0.017 0.0612q0.78628 0.44303 1.1591 1.1401 0.38845 0.6882 0.13979 1.5813-0.66764 2.398-4.1668 1.4238zm4.912-3.9584q0.85643 0.23844 1.2645-0.0434 0.42029-0.27848 0.65192-1.1104 0.23163-0.83196-0.0224-1.2454-0.23836-0.42231-1.0703-0.65393l-0.44045-0.12263-0.84817 3.0464zm-0.82579 4.2919q0.81972 0.22822 1.2679-0.0557 0.44816-0.2839 0.70704-1.2137 0.25207-0.90537 0.0532-1.4221-0.19888-0.51678-1.0431-0.75182l-0.83195-0.23162-0.96058 3.4502z"/>
      <path d="m-216.24 343.63 0.10308-0.66515 0.52711 0.0817q0.2761 0.0428 0.4732-0.068 0.20965-0.10888 0.29329-0.64854l0.92972-5.999q0.0836-0.53966-0.0832-0.70688-0.1543-0.16529-0.43041-0.20808l-0.5271-0.0817 0.10308-0.66516 4.3298 0.67104-0.10309 0.66516-0.5271-0.0817q-0.26356-0.0409-0.4732 0.068-0.20771 0.0963-0.28551 0.59833l-1.0484 6.7645 2.3343 0.36178q0.43925 0.0681 0.7205-0.17107 0.29574-0.24975 0.49038-0.75936l0.34668-0.91014 0.70281 0.10892-0.52159 2.7851z"/>
      <path d="m-207.49 344.85 0.0394-0.67194 0.53248 0.0312q0.27892 0.0164 0.4646-0.11269 0.19835-0.12831 0.23032-0.67347l0.35545-6.0602q0.032-0.54517-0.15002-0.69578-0.16931-0.14987-0.44823-0.16623l-0.53249-0.0312 0.0394-0.67195 4.374 0.25655-0.0394 0.67194-0.53249-0.0312q-0.27892-0.0164-0.47727 0.11195-0.18568 0.12905-0.21765 0.67421l-0.35545 6.0602q-0.032 0.54516 0.13734 0.69503 0.18199 0.15061 0.46091 0.16697l0.53249 0.0312-0.0394 0.67194z"/>
      <path d="m-198.88 345.21q-1.1298 0.0352-1.7981-0.2108-0.65609-0.25909-0.93532-0.65699-0.27962-0.41059-0.29228-0.81679-0.0135-0.4316 0.18175-0.6918 0.19479-0.2729 0.52127-0.39743t0.6946-0.136q0.0336 1.079 0.53339 1.6225 0.51247 0.5431 1.2741 0.51937 0.74893-0.0233 1.1429-0.42951 0.40664-0.40656 0.38844-0.99047-0.0202-0.64739-0.56557-1.0243-0.53271-0.37729-1.6124-0.77565-0.90004-0.34044-1.4328-0.71773-0.5331-0.38998-0.77662-0.86523-0.23123-0.48834-0.25061-1.1103-0.0241-0.77433 0.36428-1.3582 0.3884-0.58388 1.0767-0.92298 0.70096-0.33949 1.5895-0.36718 1.3963-0.0435 2.0572 0.36791 0.67313 0.39832 0.69251 1.0203 0.0138 0.44429-0.37017 0.7612-0.37132 0.31652-1.1583 0.34104-0.0111-0.35542-0.16337-0.75728-0.13959-0.40224-0.44065-0.6851-0.30105-0.28287-0.79611-0.26744-0.50776 0.0158-0.87908 0.33234-0.35902 0.30343-0.34122 0.87465 0.0111 0.35543 0.18558 0.65494 0.17452 0.29951 0.64099 0.58992 0.46607 0.27772 1.3272 0.59395 1.3241 0.4924 1.9016 1.0843 0.57752 0.59191 0.60679 1.5312 0.0253 0.81241-0.3865 1.4606-0.39952 0.63505-1.1628 1.0146-0.76324 0.37956-1.8168 0.41239z"/>
      <path d="m-193.89 344.94-0.10493-0.66487 0.52688-0.0832q0.26344-0.0416 0.42984-0.20926 0.16639-0.16769 0.0813-0.70711l-0.95419-6.0466q-0.0792-0.50179-0.2997-0.59557-0.20995-0.1083-0.46084-0.0687l-0.52688 0.0831-0.10492-0.66487 4.3279-0.68298 0.10492 0.66487-0.53942 0.0851q-0.26344 0.0416-0.42984 0.20926-0.16639 0.16769-0.0813 0.70711l0.38207 2.4211 3.2742-0.51669-0.38207-2.4211q-0.0851-0.53942-0.29507-0.64772-0.20995-0.1083-0.47339-0.0667l-0.53942 0.0851-0.10492-0.66487 4.3279-0.68298 0.10492 0.66487-0.52688 0.0831q-0.26344 0.0416-0.42983 0.20926-0.1664 0.16768-0.0813 0.70711l0.95617 6.0591q0.0792 0.50179 0.28716 0.59754 0.22051 0.0938 0.47141 0.0542l0.52688-0.0831 0.10492 0.66487-4.3279 0.68298-0.10493-0.66488 0.53943-0.0851q0.26344-0.0416 0.42983-0.20926 0.1664-0.16769 0.0813-0.70711l-0.44344-2.81-3.2742 0.51669 0.44344 2.81q0.0851 0.53942 0.29507 0.64772 0.20995 0.1083 0.47339 0.0667l0.53943-0.0851 0.10492 0.66487z"/>
      <path d="m-183.12 343.09-0.19129-0.64535 0.51141-0.15158q0.2557-0.0758 0.40226-0.2517 0.14655-0.1759 2e-3 -0.66295l-1.7432-5.8812q-0.1552-0.52358-0.37754-0.60338-0.21017-0.0834-0.47805-4e-3l-0.51141 0.15158-0.19129-0.64535 6.7579-2.0031 0.71279 2.226-0.85235 0.25264-0.23051-0.55424q-0.18224-0.43609-0.43346-0.6133-0.24265-0.193-0.62012-0.0811l-2.0456 0.60634 0.90229 3.0441 2.8858-0.85537 0.21655 0.73058-2.8858 0.85538 1.0178 3.4337 2.4353-0.72183q0.36529-0.10828 0.45997-0.41451 0.10324-0.32202 0.045-0.74188l-0.0722-0.60116 0.84017-0.24904 0.57885 2.2657z"/>
      <path d="m-174.66 340.54-0.27168-0.61584 0.48802-0.2153q0.25562-0.11277 0.36191-0.31235 0.1179-0.20471-0.10252-0.70435l-2.4708-5.6006q-0.20504-0.46478-0.4306-0.50408-0.23068-0.0509-0.47469 0.0567l-0.48801 0.2153-0.27169-0.61583 3.8344-1.6916q1.9288-0.85094 3.467-0.32191 1.5382 0.52904 2.4097 2.5044 0.55875 1.2665 0.52457 2.4476-0.0393 1.1695-0.71632 2.1206-0.66539 0.94596-2.0249 1.5457zm3.2494-2.2942q1.1968-0.52799 1.3807-1.7474 0.19036-1.2361-0.54269-2.8977-0.73304-1.6616-1.7077-2.2033-0.96305-0.54681-2.1482-0.0239l-0.66231 0.2922 3.0296 6.8671z"/>
      <path d="m-161.92 334.31-0.72141-1.0912 0.51032-2.6363q0.21558-1.1017 0.22899-1.8413 0.0134-0.73964-0.15704-1.2968-0.17045-0.55719-0.53466-1.1081-0.39922-0.60386-0.8038-0.73222-0.41158-0.13896-0.79297 0.11319-0.5403 0.3572-0.4546 0.97042 0.0893 0.59563 0.69163 1.5067-0.60386 0.39922-1.1393 0.4183-0.53188 1e-3 -0.9101-0.57061-0.25214-0.38138-0.21501-0.87789 0.0477-0.50352 0.44077-1.0374 0.38603-0.54448 1.1594-1.0558 1.1865-0.78445 2.1162-0.71395 0.93322 0.0529 1.4725 0.86865 0.24514 0.37079 0.33855 0.81145 0.104 0.43365 0.0699 1.0499-0.0341 0.61629-0.19957 1.5174-0.1725 0.8905-0.46977 2.168l-0.39403 1.7068 2.4684-1.6319q0.67802-0.44826 0.39603-1.3123l-0.13237-0.38445 0.62505-0.41323 1.4179 2.2598z"/>
      <path d="m-153.1 328.18q-0.89579 0.7302-1.7965 0.71069-0.90069-0.0195-1.803-0.64398-0.89242-0.63248-1.7831-1.7252-0.89068-1.0927-1.3223-2.0844-0.42173-0.99978-0.25125-1.8761 0.17048-0.87629 1.0761-1.6145 0.85642-0.69811 1.7392-0.68042 0.89266 0.01 1.8048 0.62611 0.90408 0.60659 1.7948 1.6993 0.89068 1.0927 1.3106 2.1103 0.41188 1.0078 0.24943 1.8939-0.16246 0.88613-1.0189 1.5842zm-0.52157-0.63986q0.55126-0.44935 0.0767-1.3733-0.47459-0.92392-1.622-2.3316-1.1475-1.4077-1.9487-2.0489-0.80126-0.64125-1.3427-0.19992-0.55125 0.44936-0.0945 1.3715 0.45672 0.9221 1.6042 2.3298 1.1475 1.4077 1.9666 2.0508 0.81913 0.64307 1.3605 0.20174z"/>
      <path d="m-147.43 323.06q-0.81759 0.81681-1.7156 0.88822-0.89806 0.0714-1.8587-0.45889-0.95165-0.53928-1.948-1.5366-0.99633-0.99729-1.5257-1.9405-0.5204-0.95216-0.43915-1.8412 0.0813-0.889 0.90783-1.7148 0.78166-0.78091 1.6618-0.85232 0.88908-0.0804 1.8587 0.44092 0.96064 0.51234 1.957 1.5096t1.5167 1.9674q0.51141 0.96114 0.43914 1.8591-0.0723 0.89799-0.85394 1.6789zm-0.58343-0.584q0.50313-0.50265-0.0622-1.374-0.56534-0.87136-1.8489-2.1562-1.2836-1.2848-2.1454-1.842-0.86184-0.55719-1.356-0.0635-0.50314 0.50265 0.0442 1.374 0.54738 0.87135 1.8309 2.1561 1.2836 1.2848 2.1634 1.842 0.8798 0.55719 1.374 0.0635z"/>
      <path d="m-142.3 317.39q-0.73043 0.89561-1.6166 1.0578-0.88616 0.16223-1.8957-0.26779-1.0015-0.43985-2.0939-1.3308-1.0924-0.89097-1.7149-1.7755-0.61439-0.89439-0.62383-1.7871-9e-3 -0.89266 0.72902-1.7981 0.69833-0.85624 1.5666-1.0166 0.87633-0.17026 1.8939 0.24991 1.0077 0.41215 2.1001 1.3031 1.0924 0.89096 1.7086 1.8032 0.60636 0.90424 0.62565 1.8049 0.0193 0.90069-0.67905 1.7569zm-0.63972-0.52174q0.4495-0.55114-0.20139-1.3606-0.6509-0.80945-2.0583-1.9573t-2.3213-1.6146-1.3554 0.0745q-0.4495 0.55114 0.18353 1.3624 0.63302 0.81126 2.0404 1.9591 1.4074 1.1478 2.3392 1.6128 0.93182 0.46498 1.3733-0.0763z"/>
      <path d="m-139.66 306.51 1.5256-0.40541-0.40091-1.5087-1.5256 0.40541zm-1.0331 1.7808-1.1487-4.3226 4.3395-1.1532 1.1487 4.3226z"/>
     </g>
     <g transform="matrix(2.4931 0 0 2.4931 803.82 142.73)" style="shape-inside:url(#rect935);white-space:pre" aria-label="H    H       S ">
      <path d="m-277.58 35.26v-2.0567h1.6298q0.81492 0 1.397-0.42686 0.58209-0.42686 0.58209-2.0955v-18.704q0-1.5522-0.62089-1.9403-0.58209-0.42686-1.3582-0.42686h-1.6298v-2.0567h13.388v2.0567h-1.6686q-0.81492 0-1.397 0.42686-0.58208 0.42686-0.58208 2.0955v7.4895h10.128v-7.4895q0-1.6686-0.58208-2.0955-0.58209-0.42686-1.397-0.42686h-1.6686v-2.0567h13.388v2.0567h-1.6298q-0.81492 0-1.397 0.42686-0.58208 0.42686-0.58208 2.0955v18.743q0 1.5522 0.58208 1.9403 0.62089 0.38806 1.397 0.38806h1.6298v2.0567h-13.388v-2.0567h1.6686q0.81491 0 1.397-0.42686 0.58208-0.42686 0.58208-2.0955v-8.6925h-10.128v8.6925q0 1.6686 0.58208 2.0955 0.58209 0.42686 1.397 0.42686h1.6686v2.0567z"/>
      <path d="m-244.66 61.458v-2.0567h1.6298q0.81492 0 1.397-0.42686 0.58208-0.42686 0.58208-2.0955v-18.704q0-1.5522-0.62089-1.9403-0.58208-0.42686-1.3582-0.42686h-1.6298v-2.0567h13.388v2.0567h-1.6686q-0.81492 0-1.397 0.42686-0.58209 0.42686-0.58209 2.0955v7.4895h10.128v-7.4895q0-1.6686-0.58209-2.0955-0.58208-0.42686-1.397-0.42686h-1.6686v-2.0567h13.388v2.0567h-1.6298q-0.81492 0-1.397 0.42686-0.58209 0.42686-0.58209 2.0955v18.743q0 1.5522 0.58209 1.9403 0.62088 0.38806 1.397 0.38806h1.6298v2.0567h-13.388v-2.0567h1.6686q0.81492 0 1.397-0.42686 0.58209-0.42686 0.58209-2.0955v-8.6925h-10.128v8.6925q0 1.6686 0.58209 2.0955 0.58208 0.42686 1.397 0.42686h1.6686v2.0567z"/>
      <path d="m-202.57 88.044q-3.4537 0-5.4716-0.81492-1.9791-0.85372-2.794-2.0955-0.81491-1.2806-0.81491-2.5224 0-1.3194 0.62088-2.0955 0.62089-0.81492 1.6298-1.1642 1.009-0.34925 2.1343-0.34925 0 3.2985 1.4746 5.0059 1.5134 1.7074 3.8418 1.7074 2.2895 0 3.5313-1.203 1.2806-1.203 1.2806-2.988 0-1.9791-1.6298-3.1821-1.591-1.203-4.8507-2.5224-2.7164-1.1254-4.3074-2.3283-1.591-1.2418-2.2895-2.7164-0.65969-1.5134-0.65969-3.4149 0-2.3671 1.2418-4.1134t3.3761-2.7164q2.1731-0.97014 4.8895-0.97014 4.2686 0 6.2477 1.3194 2.0179 1.2806 2.0179 3.1821 0 1.3582-1.203 2.2895-1.1642 0.93133-3.5701 0.93133 0-1.0866-0.42686-2.3283-0.38805-1.2418-1.2806-2.1343t-2.406-0.89253q-1.5522 0-2.7164 0.93134-1.1254 0.89253-1.1254 2.6388 0 1.0866 0.50447 2.0179 0.50447 0.93133 1.9015 1.8627 1.397 0.89253 3.997 1.9403 3.997 1.6298 5.7044 3.4925 1.7074 1.8627 1.7074 4.7343 0 2.4836-1.3194 4.4238-1.2806 1.9015-3.6477 2.988t-5.588 1.0866z"/>
     </g>
    </g>
    <g transform="matrix(.014644 0 0 -.014644 82.169 292)">
     <path d="m6270 3183c-23-10-48-45-60-88-6-22-15-143-20-270-5-126-9-231-9-232-1-2-35-3-76-3-149 0-589-117-1320-351-299-95-445-133-625-161l-86-14-159 45-160 45-820-48c-451-26-1112-58-1470-71-546-21-692-30-910-55-143-16-265-30-272-30-6 0-41-25-77-56l-66-55v-310c0-282-3-331-30-560-17-138-44-339-60-447-49-336-49-331-4-423 21-44 43-79 49-79 25 0 859 273 1500 492 385 131 968 324 1295 428 401 127 720 236 978 333 210 79 382 140 382 136s-6-9-12-12c-7-2-10-7-7-11 3-3 104 25 225 63 529 166 723 218 829 222 78 3 91-5 135-84 118-217 203-267 448-267 158 0 209 9 310 55 105 48 153 105 217 257 50 119 75 162 109 190 28 23 129 24 262 1 97-16 182-15 1939 16 1809 31 1838 32 1859 13 29-26 83-43 115-36 38 9 80 52 93 96l11 38h156c86 0 1194 9 2464 20 2176 19 2309 19 2334 3 35-23 124-24 149-1 18 15 119 17 1274 25 1313 10 1607 8 1627-9 14-11 244-28 274-21 11 3 26 0 34-7 37-30 95 61 79 124-12 48-34 58-105 47-117-19-657-31-1337-31h-674l44 33c39 29 69 73 82 118 4 15 32 18 218 23 243 8 1313 26 1553 26l160 1 35 31c34 32 35 34 34 104-1 55-7 81-22 106-34 55-59 63-201 63-123 0-126 0-129 23-6 42-104 69-144 39-9-7-18-24-20-37l-3-25-480 2c-264 1-518 4-564 8-55 4-87 3-94-4-8-8-253-11-815-11h-803l-37 25c-60 41-151 34-207-15-19-16-158-18-2467-24l-2446-7-16 22c-54 78-194 77-236 0-10-19-20-21-113-21-96 1-100 2-75 16 54 29 42 101-20 125-15 6-40 17-55 25-46 23-92 17-149-18l-53-33h-220c-163 0-231 4-263 14-35 12-46 12-67 1-14-7-25-19-25-27 0-7-7-13-15-13s-26-5-41-12c-22-10-25-17-21-43l5-31-1216 4-1217 5-40 27c-23 16-48 29-55 31-30 6-80-13-99-37s-21-24-180-24c-141 0-162 2-168 17-9 22 36 59 89 73 39 11 44 10 84-19 28-19 50-28 61-24 27 9 143 93 143 102 0 19-69 81-118 106-40 21-76 30-141 36-101 9-128 18-159 52-22 23-23 32-20 127 2 91 0 104-17 116-20 15-39 17-65 7z" fill="#2d774c"/>
    </g>
   </g>
  </g>
 </g>
</svg>
